<svg xmlns="http://www.w3.org/2000/svg" viewBox="0 0 115.35 37"><defs><style>.cls-1{fill:none;stroke:#000;stroke-miterlimit:10;}</style></defs><g id="Слой_2" data-name="Слой 2"><g id="Слой_1-2" data-name="Слой 1"><polyline class="cls-1" points="18.5 0.5 0.5 0.5 0.5 36.5 18.5 36.5"/><path d="M4.46,11.5V6.55H3.6V5.8h.86V5.19a2.68,2.68,0,0,1,.1-.86,1.15,1.15,0,0,1,.49-.6,1.72,1.72,0,0,1,1-.24,4.34,4.34,0,0,1,.9.1l-.15.84a3.88,3.88,0,0,0-.57,0,.82.82,0,0,0-.62.19,1,1,0,0,0-.18.7V5.8H6.53v.75H5.42v5Z"/><path d="M6.92,8.65A2.93,2.93,0,0,1,7.8,6.3a2.67,2.67,0,0,1,1.8-.63,2.54,2.54,0,0,1,1.92.77,2.91,2.91,0,0,1,.75,2.13,3.78,3.78,0,0,1-.33,1.73,2.35,2.35,0,0,1-1,1,2.82,2.82,0,0,1-1.37.35,2.58,2.58,0,0,1-1.94-.77A3.07,3.07,0,0,1,6.92,8.65Zm1,0a2.41,2.41,0,0,0,.47,1.64,1.54,1.54,0,0,0,1.21.54,1.5,1.5,0,0,0,1.19-.54,2.5,2.5,0,0,0,.48-1.67A2.38,2.38,0,0,0,10.79,7a1.6,1.6,0,0,0-2.4,0A2.41,2.41,0,0,0,7.92,8.65Z"/><path d="M13,8.65a2.93,2.93,0,0,1,.88-2.35,2.66,2.66,0,0,1,1.79-.63,2.55,2.55,0,0,1,1.93.77,3,3,0,0,1,.74,2.13,3.78,3.78,0,0,1-.33,1.73,2.33,2.33,0,0,1-1,1,2.83,2.83,0,0,1-1.38.35,2.57,2.57,0,0,1-1.93-.77A3.07,3.07,0,0,1,13,8.65Zm1,0a2.41,2.41,0,0,0,.48,1.64,1.6,1.6,0,0,0,2.4,0,2.5,2.5,0,0,0,.48-1.67A2.38,2.38,0,0,0,16.91,7a1.6,1.6,0,0,0-2.4,0A2.41,2.41,0,0,0,14,8.65Z"/><path d="M21.36,13.81A9.77,9.77,0,0,1,20,11.45a7.32,7.32,0,0,1-.55-2.8,7.45,7.45,0,0,1,.41-2.45,10.28,10.28,0,0,1,1.49-2.71h.7a17.3,17.3,0,0,0-.86,1.6,9,9,0,0,0-.52,1.54,9.27,9.27,0,0,0-.23,2,9.66,9.66,0,0,0,1.61,5.16Z"/><path d="M23.19,4.74V3.63h1V4.74Zm0,6.76V5.8h1v5.7Z"/><path d="M25.88,11.5V10.4H27v1.1a1.9,1.9,0,0,1-.22,1,1.41,1.41,0,0,1-.68.58l-.27-.42a.87.87,0,0,0,.45-.39,1.61,1.61,0,0,0,.16-.75Z"/><path d="M31.35,9.8l1-.15a1.35,1.35,0,0,0,.44.88,1.6,1.6,0,0,0,1,.3,1.5,1.5,0,0,0,1-.27.79.79,0,0,0,.32-.63.59.59,0,0,0-.28-.52,4.24,4.24,0,0,0-1-.33,9,9,0,0,1-1.47-.46,1.4,1.4,0,0,1-.63-.54,1.49,1.49,0,0,1-.21-.77,1.58,1.58,0,0,1,.17-.71,1.76,1.76,0,0,1,.48-.54,2.12,2.12,0,0,1,.62-.28,3.09,3.09,0,0,1,.83-.11,3.28,3.28,0,0,1,1.18.19,1.6,1.6,0,0,1,.75.52,2.07,2.07,0,0,1,.33.89l-.94.13a1,1,0,0,0-.38-.69,1.31,1.31,0,0,0-.87-.25,1.64,1.64,0,0,0-1,.22.65.65,0,0,0-.29.52.54.54,0,0,0,.12.34.86.86,0,0,0,.37.25c.1,0,.38.12.86.25a10.92,10.92,0,0,1,1.43.45,1.47,1.47,0,0,1,.64.51,1.42,1.42,0,0,1,.23.82,1.59,1.59,0,0,1-.29.91,1.75,1.75,0,0,1-.81.67,3,3,0,0,1-1.2.23,2.69,2.69,0,0,1-1.7-.46A2.17,2.17,0,0,1,31.35,9.8Z"/><path d="M39.35,10.64l.14.85a3.53,3.53,0,0,1-.73.09,1.64,1.64,0,0,1-.82-.17,1,1,0,0,1-.41-.44,3.4,3.4,0,0,1-.12-1.14V6.55H36.7V5.8h.71V4.38l1-.58v2h1v.75h-1V9.88a1.49,1.49,0,0,0,.06.54.4.4,0,0,0,.16.18.62.62,0,0,0,.33.07Z"/><path d="M40.28,11.5V5.8h.87v.86a2.37,2.37,0,0,1,.62-.8,1,1,0,0,1,.62-.19,1.88,1.88,0,0,1,1,.31l-.33.9a1.41,1.41,0,0,0-.71-.21.91.91,0,0,0-.57.19,1,1,0,0,0-.36.53,3.65,3.65,0,0,0-.16,1.12v3Z"/><path d="M44.59,13.81H43.9a9.64,9.64,0,0,0,1.6-5.16,9,9,0,0,0-.23-2,8.28,8.28,0,0,0-.51-1.55c-.14-.32-.43-.86-.86-1.61h.69A10.28,10.28,0,0,1,46.08,6.2a7.21,7.21,0,0,1,.42,2.45,7.33,7.33,0,0,1-.56,2.8A9.77,9.77,0,0,1,44.59,13.81Z"/><path d="M4.23,16.8H6.46a4.12,4.12,0,0,1,1.22.13,1.42,1.42,0,0,1,.69.51,1.36,1.36,0,0,1,.29.87A1.34,1.34,0,0,1,8,19.53a1.37,1.37,0,0,1,.67.5,1.44,1.44,0,0,1,.26.87,1.49,1.49,0,0,1-.58,1.21,2.54,2.54,0,0,1-1.53.39H4.23Zm1,2.4h1a3.3,3.3,0,0,0,.85-.07.87.87,0,0,0,.41-.26.67.67,0,0,0,.18-.47.65.65,0,0,0-.32-.63,2.52,2.52,0,0,0-1.09-.17H5.2Zm0,2.51H6.47a2.28,2.28,0,0,0,1.13-.2.73.73,0,0,0,.32-.65.79.79,0,0,0-.18-.51.75.75,0,0,0-.46-.3A4.87,4.87,0,0,0,6.37,20H5.2Z"/><path d="M10.09,16.8h1V19h1.22a3.14,3.14,0,0,1,1.85.47,1.49,1.49,0,0,1,.64,1.28A1.61,1.61,0,0,1,14.23,22a2.44,2.44,0,0,1-1.72.51H10.09Zm1,4.91h1a2.78,2.78,0,0,0,1.31-.23.76.76,0,0,0,.39-.7.87.87,0,0,0-.29-.66,1.88,1.88,0,0,0-1.28-.29H11.06ZM15.5,16.8h1v5.7h-1Z"/><path d="M18.74,16.8h4v4.91h.62v2.41h-.79V22.5H18v1.62h-.79V21.71h.51C18.44,20.78,18.77,19.15,18.74,16.8Zm.8.8a9.28,9.28,0,0,1-.86,4.11h3.07V17.6Z"/><path d="M28.3,20.66l1,.13a2.48,2.48,0,0,1-.88,1.36,3,3,0,0,1-3.62-.29,3.07,3.07,0,0,1-.73-2.16,3.18,3.18,0,0,1,.74-2.24,2.53,2.53,0,0,1,1.93-.79,2.42,2.42,0,0,1,1.86.78,3.05,3.05,0,0,1,.73,2.19c0,.05,0,.14,0,.26H25.07a2.19,2.19,0,0,0,.53,1.43,1.56,1.56,0,0,0,1.19.5,1.45,1.45,0,0,0,.91-.28A1.84,1.84,0,0,0,28.3,20.66ZM25.12,19.1h3.19A1.91,1.91,0,0,0,27.94,18a1.46,1.46,0,0,0-1.19-.56,1.52,1.52,0,0,0-1.12.45A1.77,1.77,0,0,0,25.12,19.1Z"/><path d="M30.62,16.8h4.49v5.7h-1V17.6H31.59v2.84a8.4,8.4,0,0,1-.07,1.31,1,1,0,0,1-.35.55,1.31,1.31,0,0,1-.84.24,7.78,7.78,0,0,1-.78-.05v-.8H30a1.09,1.09,0,0,0,.43-.06.32.32,0,0,0,.18-.2,5.82,5.82,0,0,0,0-.87Z"/><path d="M41.05,16.8v5.7h-1V20.28h-.56a1.67,1.67,0,0,0-.76.13,3,3,0,0,0-.72.84L37.2,22.5H36l1-1.54a1.64,1.64,0,0,1,1-.79,1.85,1.85,0,0,1-1.23-.6,1.67,1.67,0,0,1-.4-1.11,1.53,1.53,0,0,1,.53-1.2,2.18,2.18,0,0,1,1.51-.46Zm-1,.8H38.72a1.67,1.67,0,0,0-1.12.26.93.93,0,0,0-.25.63.84.84,0,0,0,.37.75,2.55,2.55,0,0,0,1.3.24h1.07Z"/><path d="M46.43,20.66l1,.13a2.41,2.41,0,0,1-.87,1.36,3,3,0,0,1-3.62-.29,3,3,0,0,1-.73-2.16,3.18,3.18,0,0,1,.74-2.24,2.5,2.5,0,0,1,1.92-.79,2.42,2.42,0,0,1,1.87.78,3.05,3.05,0,0,1,.73,2.19c0,.05,0,.14,0,.26H43.2a2.14,2.14,0,0,0,.53,1.43,1.56,1.56,0,0,0,1.19.5,1.45,1.45,0,0,0,.91-.28A1.84,1.84,0,0,0,46.43,20.66ZM43.25,19.1h3.19A2,2,0,0,0,46.07,18a1.5,1.5,0,0,0-1.2-.56,1.55,1.55,0,0,0-1.12.45A1.76,1.76,0,0,0,43.25,19.1Z"/><path d="M47.75,16.8h4.64v.8H50.55v4.9h-1V17.6H47.75Z"/><path d="M56.37,15.74V14.63h1v1.11Zm0,6.76V16.8h1v5.7Z"/><path d="M58.44,20.14v-1h3v1Z"/><path d="M62.5,16.8h1V19h1.23a3.1,3.1,0,0,1,1.84.47,1.5,1.5,0,0,1,.65,1.28A1.61,1.61,0,0,1,66.64,22a2.47,2.47,0,0,1-1.73.51H62.5Zm1,4.91h1a2.78,2.78,0,0,0,1.31-.23.76.76,0,0,0,.39-.7.91.91,0,0,0-.29-.66,1.88,1.88,0,0,0-1.28-.29H63.46ZM67.9,16.8h1v5.7h-1Z"/><path d="M70.38,16.8h1v4.35L74,16.8h1v5.7h-1V18.18L71.42,22.5h-1Zm3.36-2.16h.66A1.46,1.46,0,0,1,72.81,16a1.59,1.59,0,0,1-1.09-.36,1.56,1.56,0,0,1-.5-1h.66a1,1,0,0,0,.3.54.93.93,0,0,0,.6.18,1.11,1.11,0,0,0,.66-.17A.89.89,0,0,0,73.74,14.64Z"/><path d="M83.3,20.41l1,.12a2.47,2.47,0,0,1-.79,1.54,2.35,2.35,0,0,1-1.58.56A2.44,2.44,0,0,1,80,21.86a3.07,3.07,0,0,1-.71-2.19,4,4,0,0,1,.3-1.62,2.2,2.2,0,0,1,.93-1,2.81,2.81,0,0,1,1.37-.34,2.34,2.34,0,0,1,1.52.47,2.16,2.16,0,0,1,.75,1.33l-.94.15a1.56,1.56,0,0,0-.47-.87,1.25,1.25,0,0,0-.83-.29,1.49,1.49,0,0,0-1.18.53,2.43,2.43,0,0,0-.46,1.65,2.57,2.57,0,0,0,.44,1.67,1.42,1.42,0,0,0,1.15.52,1.31,1.31,0,0,0,.95-.35A1.7,1.7,0,0,0,83.3,20.41Z"/><path d="M85.08,16.8h1v4.35l2.68-4.35h1v5.7h-1V18.18L86.12,22.5h-1Z"/><path d="M91.25,16.8h1.51l1.5,4.56,1.66-4.56h1.39v5.7h-1V17.91L94.66,22.5h-.87L92.2,17.69V22.5h-1Z"/><path d="M98.79,16.8H101a4.2,4.2,0,0,1,1.23.13,1.45,1.45,0,0,1,.68.51,1.36,1.36,0,0,1,.29.87,1.46,1.46,0,0,1-.17.71,1.38,1.38,0,0,1-.51.51,1.37,1.37,0,0,1,.67.5,1.45,1.45,0,0,1,.27.87,1.55,1.55,0,0,1-.58,1.21,2.54,2.54,0,0,1-1.53.39H98.79Zm1,2.4h1a3.25,3.25,0,0,0,.85-.07.87.87,0,0,0,.41-.26.64.64,0,0,0,.19-.47.67.67,0,0,0-.32-.63,2.61,2.61,0,0,0-1.1-.17H99.76Zm0,2.51H101a2.26,2.26,0,0,0,1.13-.2.71.71,0,0,0,.32-.65.85.85,0,0,0-.17-.51.77.77,0,0,0-.47-.3,4.87,4.87,0,0,0-.91-.06H99.76Z"/><path d="M104.15,19.65A2.93,2.93,0,0,1,105,17.3a2.66,2.66,0,0,1,1.79-.63,2.55,2.55,0,0,1,1.93.77,3,3,0,0,1,.74,2.13,3.78,3.78,0,0,1-.33,1.73,2.33,2.33,0,0,1-1,1,2.83,2.83,0,0,1-1.38.35,2.57,2.57,0,0,1-1.93-.77A3.07,3.07,0,0,1,104.15,19.65Zm1,0a2.41,2.41,0,0,0,.48,1.64,1.6,1.6,0,0,0,2.4,0,2.5,2.5,0,0,0,.48-1.67A2.38,2.38,0,0,0,108,18a1.6,1.6,0,0,0-2.4,0A2.41,2.41,0,0,0,105.14,19.65Z"/><path d="M110.86,16.8h4.49v5.7h-1V17.6h-2.57v2.84a8.86,8.86,0,0,1-.06,1.31,1,1,0,0,1-.35.55,1.31,1.31,0,0,1-.84.24,7.78,7.78,0,0,1-.78-.05v-.8h.42a1.09,1.09,0,0,0,.43-.06.28.28,0,0,0,.17-.2,4.24,4.24,0,0,0,0-.87Z"/><path d="M8,31.41l1,.12a2.48,2.48,0,0,1-.8,1.54,2.33,2.33,0,0,1-1.58.56,2.46,2.46,0,0,1-1.88-.77,3.12,3.12,0,0,1-.71-2.19,3.87,3.87,0,0,1,.31-1.62,2.1,2.1,0,0,1,.93-1,2.75,2.75,0,0,1,1.36-.34,2.32,2.32,0,0,1,1.52.47,2.17,2.17,0,0,1,.76,1.33l-.94.15a1.57,1.57,0,0,0-.48-.87,1.24,1.24,0,0,0-.82-.29A1.5,1.5,0,0,0,5.38,29a2.48,2.48,0,0,0-.46,1.65,2.57,2.57,0,0,0,.44,1.67,1.44,1.44,0,0,0,1.15.52,1.31,1.31,0,0,0,1-.35A1.71,1.71,0,0,0,8,31.41Z"/><path d="M9.2,27.8h4.64v.8H12v4.9H11V28.6H9.2Z"/><path d="M14.76,35.69V27.8h.88v.74a2.31,2.31,0,0,1,.71-.66,2,2,0,0,1,.95-.21,2.27,2.27,0,0,1,1.29.37,2.35,2.35,0,0,1,.84,1.06,3.89,3.89,0,0,1,.29,1.5,3.81,3.81,0,0,1-.32,1.58,2.37,2.37,0,0,1-.91,1.08,2.42,2.42,0,0,1-1.26.37,1.81,1.81,0,0,1-.87-.21,1.77,1.77,0,0,1-.63-.51v2.78Zm.88-5a2.54,2.54,0,0,0,.44,1.63,1.37,1.37,0,0,0,1.08.52,1.42,1.42,0,0,0,1.11-.54,2.62,2.62,0,0,0,.46-1.69A2.5,2.5,0,0,0,18.28,29a1.34,1.34,0,0,0-1.07-.55,1.43,1.43,0,0,0-1.1.58A2.65,2.65,0,0,0,15.64,30.68Z"/><path d="M20.52,30.65a2.93,2.93,0,0,1,.88-2.35,2.67,2.67,0,0,1,1.8-.63,2.54,2.54,0,0,1,1.92.77,2.91,2.91,0,0,1,.75,2.13,3.64,3.64,0,0,1-.34,1.73,2.33,2.33,0,0,1-1,1,2.82,2.82,0,0,1-1.37.35,2.58,2.58,0,0,1-1.94-.77A3.07,3.07,0,0,1,20.52,30.65Zm1,0A2.41,2.41,0,0,0,22,32.29a1.54,1.54,0,0,0,1.21.54,1.52,1.52,0,0,0,1.19-.54,2.5,2.5,0,0,0,.48-1.67A2.38,2.38,0,0,0,24.39,29,1.6,1.6,0,0,0,22,29,2.41,2.41,0,0,0,21.51,30.65Z"/><path d="M27,27.8h1v2.46a.94.94,0,0,0,.65-.18,3.85,3.85,0,0,0,.54-1,4.45,4.45,0,0,1,.46-.89.94.94,0,0,1,.41-.29,2.69,2.69,0,0,1,.74-.07H31v.8h-.27a.74.74,0,0,0-.49.11,2.68,2.68,0,0,0-.34.71,3,3,0,0,1-.41.77,1.71,1.71,0,0,1-.56.39,2.35,2.35,0,0,1,1.22,1.16l1.06,1.77H30.11l-1-1.77a2.36,2.36,0,0,0-.56-.7.93.93,0,0,0-.56-.17V33.5H27Z"/><path d="M31.81,27.8h1v4.35l2.68-4.35h1v5.7h-1V29.18L32.85,33.5h-1Z"/><path d="M40.62,31.8l1-.15a1.32,1.32,0,0,0,.45.88,1.58,1.58,0,0,0,1,.3,1.54,1.54,0,0,0,1-.27.82.82,0,0,0,.32-.63.6.6,0,0,0-.29-.52,4.28,4.28,0,0,0-1-.33,9.61,9.61,0,0,1-1.48-.46,1.43,1.43,0,0,1-.62-.54,1.49,1.49,0,0,1-.21-.77A1.46,1.46,0,0,1,41,28.6a1.76,1.76,0,0,1,.48-.54,2,2,0,0,1,.61-.28,3.5,3.5,0,0,1,2,.08,1.6,1.6,0,0,1,.75.52,2,2,0,0,1,.34.89l-.95.13a1,1,0,0,0-.37-.69,1.35,1.35,0,0,0-.87-.25,1.62,1.62,0,0,0-1,.22.65.65,0,0,0-.29.52.54.54,0,0,0,.12.34.81.81,0,0,0,.37.25c.1,0,.38.12.85.25a10.42,10.42,0,0,1,1.43.45,1.37,1.37,0,0,1,.64.51,1.35,1.35,0,0,1,.23.82,1.58,1.58,0,0,1-.28.91,1.86,1.86,0,0,1-.81.67,3.11,3.11,0,0,1-1.21.23,2.66,2.66,0,0,1-1.69-.46A2.18,2.18,0,0,1,40.62,31.8Z"/><path d="M48.62,32.64l.14.85a3.37,3.37,0,0,1-.73.09,1.63,1.63,0,0,1-.81-.17.91.91,0,0,1-.41-.44,3.4,3.4,0,0,1-.12-1.14V28.55H46V27.8h.71V26.38l1-.58v2h1v.75h-1v3.33a1.89,1.89,0,0,0,.05.54.42.42,0,0,0,.17.18.6.6,0,0,0,.33.07Z"/><path d="M49.56,33.5V27.8h.87v.86a2.37,2.37,0,0,1,.61-.8,1.08,1.08,0,0,1,.62-.19,1.88,1.88,0,0,1,1,.31l-.34.9a1.36,1.36,0,0,0-.71-.21.91.91,0,0,0-.57.19,1,1,0,0,0-.35.53,3.65,3.65,0,0,0-.17,1.12v3Z"/></g></g></svg>