<?xml version="1.0" standalone="no"?>
<!DOCTYPE svg PUBLIC "-//W3C//DTD SVG 20010904//EN"
 "http://www.w3.org/TR/2001/REC-SVG-20010904/DTD/svg10.dtd">
<svg version="1.0" xmlns="http://www.w3.org/2000/svg"
 width="160.000000pt" height="160.000000pt" viewBox="0 0 160.000000 160.000000"
 preserveAspectRatio="xMidYMid meet">
<metadata>
Created by potrace 1.11, written by Peter Selinger 2001-2013
</metadata>
<g transform="translate(0.000000,160.000000) scale(0.100000,-0.100000)"
fill="#000000" stroke="none">
<path d="M408 1210 c-411 -206 -417 -211 -404 -285 8 -41 34 -65 122 -109 l72
-35 3 -118 c4 -106 7 -123 30 -163 15 -25 36 -54 48 -64 18 -17 21 -30 21
-108 l0 -88 174 0 c157 0 178 -2 222 -22 33 -15 68 -22 107 -22 53 1 76 10
270 105 299 147 327 180 327 380 l0 98 81 42 c110 58 138 103 104 170 -13 25
-76 59 -395 219 -209 105 -386 190 -392 189 -7 0 -183 -85 -390 -189z m390
-288 c3 -18 -18 -32 -147 -97 l-151 -75 0 -126 c0 -120 1 -128 25 -156 28 -34
37 -115 11 -105 -7 3 -19 0 -25 -6 -8 -8 -14 -8 -23 1 -9 9 -15 9 -25 0 -10
-8 -17 -8 -25 0 -6 6 -17 8 -24 5 -26 -10 -17 71 11 105 24 29 25 35 25 176
l0 146 162 81 c89 44 166 78 172 76 6 -2 12 -13 14 -25z"/>
</g>
</svg>
