<svg xmlns="http://www.w3.org/2000/svg" viewBox="0 0 145 82"><defs><style>.cls-1{fill:none;stroke:#000;stroke-miterlimit:10;}</style></defs><g id="Слой_2" data-name="Слой 2"><g id="Слой_1-2" data-name="Слой 1"><polygon class="cls-1" points="0.5 9.5 9.5 0.5 135.5 0.5 144.5 9.5 144.5 36.5 0.5 36.5 0.5 9.5"/><polygon class="cls-1" points="0.5 45.5 144.5 45.5 144.5 72.5 135.5 81.5 9.5 81.5 0.5 72.5 0.5 45.5"/><path d="M45.92,15.7V7.11h1V15.7Z"/><path d="M48.22,12.59a3.2,3.2,0,0,1,1-2.56,2.87,2.87,0,0,1,2-.69,2.79,2.79,0,0,1,2.1.84,3.2,3.2,0,0,1,.82,2.32,4.13,4.13,0,0,1-.36,1.89,2.52,2.52,0,0,1-1,1.07,3.11,3.11,0,0,1-1.51.38A2.79,2.79,0,0,1,49,15,3.33,3.33,0,0,1,48.22,12.59Zm1.08,0a2.64,2.64,0,0,0,.52,1.79,1.66,1.66,0,0,0,1.31.59,1.68,1.68,0,0,0,1.31-.59A2.72,2.72,0,0,0,53,12.55a2.53,2.53,0,0,0-.52-1.74,1.67,1.67,0,0,0-1.31-.6,1.7,1.7,0,0,0-1.31.59A2.64,2.64,0,0,0,49.3,12.59Z"/><path d="M54.89,12.59a3.2,3.2,0,0,1,1-2.56,2.91,2.91,0,0,1,2-.69,2.82,2.82,0,0,1,2.1.84,3.2,3.2,0,0,1,.81,2.32,4.13,4.13,0,0,1-.36,1.89,2.52,2.52,0,0,1-1,1.07,3.1,3.1,0,0,1-1.5.38A2.78,2.78,0,0,1,55.7,15,3.33,3.33,0,0,1,54.89,12.59Zm1.08,0a2.64,2.64,0,0,0,.53,1.79,1.64,1.64,0,0,0,1.31.59,1.66,1.66,0,0,0,1.3-.59,2.72,2.72,0,0,0,.53-1.83,2.53,2.53,0,0,0-.53-1.74,1.73,1.73,0,0,0-2.61,0A2.64,2.64,0,0,0,56,12.59Z"/><path d="M62,18.09V9.48h1v.81a2.35,2.35,0,0,1,.76-.72,2.25,2.25,0,0,1,1-.23,2.43,2.43,0,0,1,1.41.41,2.58,2.58,0,0,1,.92,1.15,4.39,4.39,0,0,1,.31,1.64A4.29,4.29,0,0,1,67,14.26a2.56,2.56,0,0,1-1,1.17,2.49,2.49,0,0,1-1.37.41,2,2,0,0,1-1-.22,2.26,2.26,0,0,1-.69-.56v3Zm.95-5.47a2.67,2.67,0,0,0,.49,1.78,1.48,1.48,0,0,0,1.18.57,1.51,1.51,0,0,0,1.2-.59,2.85,2.85,0,0,0,.5-1.84,2.7,2.7,0,0,0-.49-1.78,1.46,1.46,0,0,0-1.17-.6,1.52,1.52,0,0,0-1.19.63A2.79,2.79,0,0,0,62.91,12.62Z"/><path d="M68.75,15.7V7.11h1.17l4.51,6.74V7.11h1.09V15.7H74.35L69.84,9V15.7Z"/><path d="M81.36,14.93a3.88,3.88,0,0,1-1.13.71,3.41,3.41,0,0,1-1.16.2,2.29,2.29,0,0,1-1.58-.5,1.64,1.64,0,0,1-.55-1.28,1.77,1.77,0,0,1,.75-1.44,2.78,2.78,0,0,1,.76-.35c.21,0,.52-.1.94-.16a9.59,9.59,0,0,0,1.88-.36v-.27a1.19,1.19,0,0,0-.29-.91,1.77,1.77,0,0,0-1.21-.36,1.86,1.86,0,0,0-1.09.26,1.58,1.58,0,0,0-.53.92l-1-.14a2.63,2.63,0,0,1,.46-1.07,2,2,0,0,1,.93-.62,4.11,4.11,0,0,1,1.42-.22,3.85,3.85,0,0,1,1.29.18A1.72,1.72,0,0,1,82,10a1.61,1.61,0,0,1,.33.71,5.59,5.59,0,0,1,0,1v1.4A15.8,15.8,0,0,0,82.4,15a2.6,2.6,0,0,0,.27.75h-1.1A2.17,2.17,0,0,1,81.36,14.93Zm-.09-2.35a8.14,8.14,0,0,1-1.72.4,3.7,3.7,0,0,0-.92.21,1,1,0,0,0-.42.34.92.92,0,0,0,.17,1.2,1.39,1.39,0,0,0,.94.29,2.16,2.16,0,0,0,1.08-.27,1.64,1.64,0,0,0,.7-.73A2.62,2.62,0,0,0,81.27,13Z"/><path d="M84,15.7V9.48h.94v.87a2.27,2.27,0,0,1,.78-.73,2.18,2.18,0,0,1,1.11-.28,2,2,0,0,1,1.13.28,1.54,1.54,0,0,1,.63.81,2.22,2.22,0,0,1,1.92-1.09,1.88,1.88,0,0,1,1.42.51,2.16,2.16,0,0,1,.5,1.58V15.7H91.35V11.78a2.87,2.87,0,0,0-.1-.91.86.86,0,0,0-.37-.45,1.19,1.19,0,0,0-.63-.17,1.46,1.46,0,0,0-1.09.44,1.91,1.91,0,0,0-.44,1.4V15.7h-1v-4a1.82,1.82,0,0,0-.26-1.06,1,1,0,0,0-.84-.35,1.52,1.52,0,0,0-.83.24,1.34,1.34,0,0,0-.55.68,4,4,0,0,0-.17,1.3V15.7Z"/><path d="M98.23,13.7l1.09.13a2.66,2.66,0,0,1-1,1.48,2.81,2.81,0,0,1-1.78.53A2.87,2.87,0,0,1,94.41,15a3.31,3.31,0,0,1-.8-2.36,3.46,3.46,0,0,1,.81-2.44,2.77,2.77,0,0,1,2.1-.86,2.66,2.66,0,0,1,2,.85,3.35,3.35,0,0,1,.79,2.39c0,.06,0,.15,0,.28H94.7a2.44,2.44,0,0,0,.58,1.57,1.75,1.75,0,0,0,1.3.54,1.67,1.67,0,0,0,1-.3A2,2,0,0,0,98.23,13.7ZM94.76,12h3.48a2.17,2.17,0,0,0-.4-1.18,1.64,1.64,0,0,0-1.31-.61,1.7,1.7,0,0,0-1.22.49A2,2,0,0,0,94.76,12Z"/><path d="M63.84,26.93a3.88,3.88,0,0,1-1.13.71,3.41,3.41,0,0,1-1.16.2,2.3,2.3,0,0,1-1.58-.5,1.76,1.76,0,0,1-.34-2.11,1.69,1.69,0,0,1,.54-.61,2.78,2.78,0,0,1,.76-.35c.21-.05.52-.1.94-.16a9.59,9.59,0,0,0,1.88-.36c0-.14,0-.23,0-.27a1.16,1.16,0,0,0-.3-.91,1.76,1.76,0,0,0-1.2-.36,1.9,1.9,0,0,0-1.1.26,1.63,1.63,0,0,0-.53.92l-1-.14a2.64,2.64,0,0,1,.47-1.07,1.93,1.93,0,0,1,.93-.62,4.05,4.05,0,0,1,1.41-.22,4,4,0,0,1,1.3.18,1.78,1.78,0,0,1,.73.48,1.87,1.87,0,0,1,.33.71,6.84,6.84,0,0,1,0,1v1.4A13.75,13.75,0,0,0,64.89,27a2.31,2.31,0,0,0,.26.75h-1.1A2.17,2.17,0,0,1,63.84,26.93Zm-.09-2.35A8.14,8.14,0,0,1,62,25a3.82,3.82,0,0,0-.92.21,1,1,0,0,0-.42.34,1,1,0,0,0-.14.5.86.86,0,0,0,.32.7,1.35,1.35,0,0,0,.93.29,2.11,2.11,0,0,0,1.08-.27,1.64,1.64,0,0,0,.7-.73A2.46,2.46,0,0,0,63.75,25Z"/><path d="M69.65,23.94V23l5.69-2.4v1.05l-4.51,1.85,4.51,1.87v1.05Z"/><path d="M81.1,27.7h-1V19.11h1.06v3.07a2.07,2.07,0,0,1,1.7-.84,2.51,2.51,0,0,1,1.09.23,2.17,2.17,0,0,1,.84.65,3.11,3.11,0,0,1,.52,1,4,4,0,0,1,.19,1.27A3.54,3.54,0,0,1,84.73,27a2.48,2.48,0,0,1-1.9.87,2,2,0,0,1-1.73-.92Zm0-3.16a3.27,3.27,0,0,0,.3,1.62,1.52,1.52,0,0,0,2.55.21,2.75,2.75,0,0,0,.5-1.79,2.81,2.81,0,0,0-.48-1.8,1.49,1.49,0,0,0-1.17-.58,1.51,1.51,0,0,0-1.2.61A2.64,2.64,0,0,0,81.09,24.54Z"/><path d="M45.92,60.7V52.11h1V60.7Z"/><path d="M48.22,57.59a3.2,3.2,0,0,1,1-2.56,2.87,2.87,0,0,1,2-.69,2.79,2.79,0,0,1,2.1.84,3.2,3.2,0,0,1,.82,2.32,4.13,4.13,0,0,1-.36,1.89,2.52,2.52,0,0,1-1,1.07,3.11,3.11,0,0,1-1.51.38A2.79,2.79,0,0,1,49,60,3.33,3.33,0,0,1,48.22,57.59Zm1.08,0a2.64,2.64,0,0,0,.52,1.79,1.66,1.66,0,0,0,1.31.59,1.68,1.68,0,0,0,1.31-.59A2.72,2.72,0,0,0,53,57.55a2.53,2.53,0,0,0-.52-1.74,1.67,1.67,0,0,0-1.31-.6,1.7,1.7,0,0,0-1.31.59A2.64,2.64,0,0,0,49.3,57.59Z"/><path d="M54.89,57.59a3.2,3.2,0,0,1,1-2.56,2.91,2.91,0,0,1,2-.69,2.82,2.82,0,0,1,2.1.84,3.2,3.2,0,0,1,.81,2.32,4.13,4.13,0,0,1-.36,1.89,2.52,2.52,0,0,1-1,1.07,3.1,3.1,0,0,1-1.5.38A2.78,2.78,0,0,1,55.7,60,3.33,3.33,0,0,1,54.89,57.59Zm1.08,0a2.64,2.64,0,0,0,.53,1.79,1.64,1.64,0,0,0,1.31.59,1.66,1.66,0,0,0,1.3-.59,2.72,2.72,0,0,0,.53-1.83,2.53,2.53,0,0,0-.53-1.74,1.73,1.73,0,0,0-2.61,0A2.64,2.64,0,0,0,56,57.59Z"/><path d="M62,63.09V54.48h1v.81a2.35,2.35,0,0,1,.76-.72,2.25,2.25,0,0,1,1-.23,2.43,2.43,0,0,1,1.41.41,2.58,2.58,0,0,1,.92,1.15,4.39,4.39,0,0,1,.31,1.64A4.29,4.29,0,0,1,67,59.26a2.56,2.56,0,0,1-1,1.17,2.49,2.49,0,0,1-1.37.41,2,2,0,0,1-1-.22,2.26,2.26,0,0,1-.69-.56v3Zm.95-5.47a2.67,2.67,0,0,0,.49,1.78,1.48,1.48,0,0,0,1.18.57,1.51,1.51,0,0,0,1.2-.59,2.85,2.85,0,0,0,.5-1.84,2.7,2.7,0,0,0-.49-1.78,1.46,1.46,0,0,0-1.17-.6,1.52,1.52,0,0,0-1.19.63A2.79,2.79,0,0,0,62.91,57.62Z"/><path d="M68.75,60.7V52.11h1.17l4.51,6.74V52.11h1.09V60.7H74.35L69.84,54V60.7Z"/><path d="M81.36,59.93a3.88,3.88,0,0,1-1.13.71,3.41,3.41,0,0,1-1.16.2,2.29,2.29,0,0,1-1.58-.5,1.64,1.64,0,0,1-.55-1.28,1.77,1.77,0,0,1,.75-1.44,2.78,2.78,0,0,1,.76-.35c.21-.05.52-.1.94-.16a9.59,9.59,0,0,0,1.88-.36v-.27a1.19,1.19,0,0,0-.29-.91,1.77,1.77,0,0,0-1.21-.36,1.86,1.86,0,0,0-1.09.26,1.58,1.58,0,0,0-.53.92l-1-.14a2.63,2.63,0,0,1,.46-1.07,2,2,0,0,1,.93-.62,4.11,4.11,0,0,1,1.42-.22,3.85,3.85,0,0,1,1.29.18A1.72,1.72,0,0,1,82,55a1.61,1.61,0,0,1,.33.71,5.59,5.59,0,0,1,0,1v1.4A15.8,15.8,0,0,0,82.4,60a2.6,2.6,0,0,0,.27.75h-1.1A2.17,2.17,0,0,1,81.36,59.93Zm-.09-2.35a8.14,8.14,0,0,1-1.72.4,3.7,3.7,0,0,0-.92.21,1,1,0,0,0-.42.34.92.92,0,0,0,.17,1.2,1.39,1.39,0,0,0,.94.29,2.16,2.16,0,0,0,1.08-.27,1.64,1.64,0,0,0,.7-.73A2.62,2.62,0,0,0,81.27,58Z"/><path d="M84,60.7V54.48h.94v.87a2.27,2.27,0,0,1,.78-.73,2.18,2.18,0,0,1,1.11-.28,2,2,0,0,1,1.13.28,1.54,1.54,0,0,1,.63.81,2.22,2.22,0,0,1,1.92-1.09,1.88,1.88,0,0,1,1.42.51,2.16,2.16,0,0,1,.5,1.58V60.7H91.35V56.78a2.87,2.87,0,0,0-.1-.91.86.86,0,0,0-.37-.45,1.19,1.19,0,0,0-.63-.17,1.46,1.46,0,0,0-1.09.44,1.91,1.91,0,0,0-.44,1.4V60.7h-1v-4a1.82,1.82,0,0,0-.26-1.06,1,1,0,0,0-.84-.35,1.52,1.52,0,0,0-.83.24,1.34,1.34,0,0,0-.55.68,4,4,0,0,0-.17,1.3V60.7Z"/><path d="M98.23,58.7l1.09.13a2.66,2.66,0,0,1-1,1.48,2.81,2.81,0,0,1-1.78.53A2.87,2.87,0,0,1,94.41,60a3.31,3.31,0,0,1-.8-2.36,3.46,3.46,0,0,1,.81-2.44,2.77,2.77,0,0,1,2.1-.86,2.66,2.66,0,0,1,2,.85,3.35,3.35,0,0,1,.79,2.39c0,.06,0,.15,0,.28H94.7a2.44,2.44,0,0,0,.58,1.57,1.75,1.75,0,0,0,1.3.54,1.67,1.67,0,0,0,1-.3A2,2,0,0,0,98.23,58.7ZM94.76,57h3.48a2.17,2.17,0,0,0-.4-1.18,1.64,1.64,0,0,0-1.31-.61,1.7,1.7,0,0,0-1.22.49A2,2,0,0,0,94.76,57Z"/><path d="M63.84,71.93a3.88,3.88,0,0,1-1.13.71,3.41,3.41,0,0,1-1.16.2,2.3,2.3,0,0,1-1.58-.5,1.76,1.76,0,0,1-.34-2.11,1.69,1.69,0,0,1,.54-.61,2.78,2.78,0,0,1,.76-.35c.21,0,.52-.1.94-.16a9.59,9.59,0,0,0,1.88-.36c0-.14,0-.23,0-.27a1.16,1.16,0,0,0-.3-.91,1.76,1.76,0,0,0-1.2-.36,1.9,1.9,0,0,0-1.1.26,1.63,1.63,0,0,0-.53.92l-1-.14a2.64,2.64,0,0,1,.47-1.07,1.93,1.93,0,0,1,.93-.62,4.05,4.05,0,0,1,1.41-.22,4,4,0,0,1,1.3.18,1.78,1.78,0,0,1,.73.48,1.87,1.87,0,0,1,.33.71,6.84,6.84,0,0,1,0,1v1.4A13.75,13.75,0,0,0,64.89,72a2.31,2.31,0,0,0,.26.75h-1.1A2.17,2.17,0,0,1,63.84,71.93Zm-.09-2.35A8.14,8.14,0,0,1,62,70a3.82,3.82,0,0,0-.92.21,1,1,0,0,0-.42.34,1,1,0,0,0-.14.5.86.86,0,0,0,.32.7,1.35,1.35,0,0,0,.93.29,2.11,2.11,0,0,0,1.08-.27,1.64,1.64,0,0,0,.7-.73A2.46,2.46,0,0,0,63.75,70Z"/><path d="M69.65,68.94V68l5.69-2.4v1l-4.51,1.85,4.51,1.87v1Z"/><path d="M81.1,72.7h-1V64.11h1.06v3.07a2.07,2.07,0,0,1,1.7-.84,2.51,2.51,0,0,1,1.09.23,2.17,2.17,0,0,1,.84.65,3.11,3.11,0,0,1,.52,1,4,4,0,0,1,.19,1.27A3.54,3.54,0,0,1,84.73,72a2.48,2.48,0,0,1-1.9.87,2,2,0,0,1-1.73-.92Zm0-3.16a3.27,3.27,0,0,0,.3,1.62,1.52,1.52,0,0,0,2.55.21,2.75,2.75,0,0,0,.5-1.79,2.81,2.81,0,0,0-.48-1.8,1.49,1.49,0,0,0-1.17-.58,1.51,1.51,0,0,0-1.2.61A2.64,2.64,0,0,0,81.09,69.54Z"/></g></g></svg>